<svg version="1.2" xmlns="http://www.w3.org/2000/svg" viewBox="0 0 787 728" width="787" height="728">
	<title>3641</title>
	<style>
		.s0 { fill: #c4a484 } 
	</style>
	<g id="Layer 1">
		<g id="&lt;Clip Group&gt;">
			<g id="&lt;Group&gt;">
				<g id="&lt;Group&gt;">
					<g id="&lt;Group&gt;">
						<path id="&lt;Path&gt;" class="s0" d="m354.4 533c-46 0-83.3-37.3-83.3-83.2 0-46 37.3-83.4 83.3-83.4 9.2 0 18.5 1.6 27.4 4.7 0.4 0.1 0.7 0.6 0.6 1-0.1 0.4-0.6 0.7-1 0.6-3.3-0.5-6.6-0.7-10-0.7-18.2 0-35.2 7-48 19.9-12.8 12.7-19.8 29.7-19.7 47.7 0 20 8.7 38.8 23.9 51.6 0.4 0.3 0.4 0.9 0.1 1.2-0.3 0.4-0.8 0.4-1.2 0.1-15.6-13.2-24.5-32.4-24.5-52.9 0-18.4 7.1-35.8 20.2-48.9 13.1-13.2 30.6-20.4 49.2-20.4q0.8 0 1.7 0c-6.2-1.5-12.4-2.2-18.7-2.2-45 0-81.7 36.6-81.7 81.7 0 45 36.7 81.6 81.7 81.6 36.9 0 68.4-24.2 78.4-58.8-2.1 4.4-4.4 8.4-7 12-0.3 0.3-0.8 0.4-1.2 0.1-0.4-0.2-0.5-0.8-0.2-1.1 4.2-5.8 7.6-12.5 10.6-20.8 0.1-0.4 0.6-0.6 1-0.5 0.4 0.1 0.7 0.5 0.6 1-6.6 40.4-41.2 69.7-82.2 69.7z"/>
					</g>
					<g id="&lt;Group&gt;">
						<path id="&lt;Compound Path&gt;" class="s0" d="m342.4 496.1c-0.4 0-0.8-0.4-0.8-0.8l-1.6-28.6c0-0.5 0.3-0.9 0.8-0.9 0.4 0 0.9 0.4 0.9 0.8l1.6 28.6c0 0.4-0.3 0.8-0.8 0.9q0 0-0.1 0zm-15.2-3.1q0 0 0 0c-0.5-0.1-0.8-0.4-0.8-0.9l1-25.5c0-0.4 0.4-0.8 0.9-0.8 0.4 0 0.8 0.4 0.8 0.9l-1 25.5c-0.1 0.4-0.4 0.8-0.9 0.8zm13.5-27.4c-0.5 0-0.8-0.4-0.9-0.8l-0.6-11.4c0-0.4 0.4-0.8 0.8-0.9 0.5 0 0.9 0.4 0.9 0.8l0.6 11.4c0 0.5-0.3 0.8-0.8 0.9q0 0 0 0zm-12.4-0.1q0 0 0 0c-0.5 0-0.8-0.4-0.8-0.9l0.5-11.2c0-0.4 0.4-0.8 0.9-0.8 0.4 0.1 0.8 0.4 0.8 0.9l-0.5 11.2c-0.1 0.4-0.4 0.8-0.9 0.8zm11.7-13c-0.4 0-0.8-0.4-0.8-0.8l-0.8-13.3h-8.1l-0.6 13.3c0 0.4-0.4 0.7-0.8 0.8-0.5-0.1-0.9-0.4-0.8-0.9l0.6-14c0-0.5 0.3-0.8 0.8-0.8h9.7c0.4 0 0.8 0.3 0.8 0.7l0.8 14.1c0.1 0.4-0.3 0.8-0.7 0.9q-0.1 0-0.1 0z"/>
					</g>
					<g id="&lt;Group&gt;">
						<path id="&lt;Compound Path&gt;" class="s0" d="m337.1 452.5h-4.7c-0.5 0-0.9-0.3-0.9-0.8v-10.7c0-1.7 1.5-3.2 3.2-3.2 1.8 0 3.2 1.5 3.2 3.2v10.7c0 0.5-0.4 0.8-0.8 0.8zm-3.9-1.6h3v-9.9c0-0.8-0.7-1.5-1.5-1.5-0.8 0-1.5 0.7-1.5 1.5z"/>
					</g>
					<g id="&lt;Group&gt;">
						<path id="&lt;Compound Path&gt;" class="s0" d="m339.2 438.4h-9.8c-0.9 0-1.7-0.7-1.7-1.7 0-1 0.8-1.7 1.7-1.7h9.8c1 0 1.7 0.7 1.7 1.7 0 1-0.7 1.7-1.7 1.7zm-9.8-1.7l9.8 0.1v0.8l0.1-0.8z"/>
					</g>
					<g id="&lt;Group&gt;">
						<path id="&lt;Compound Path&gt;" class="s0" d="m340.8 454.2h-13.1c-0.9 0-1.7-0.7-1.7-1.7 0-0.9 0.8-1.6 1.7-1.6h13.1c1 0 1.7 0.7 1.7 1.6 0 1-0.7 1.7-1.7 1.7zm0.1-1.7h-13.2 13.1q0.1 0 0.1 0z"/>
					</g>
					<g id="&lt;Group&gt;">
						<path id="&lt;Path&gt;" class="s0" d="m329.3 436.7c-0.3 0-0.7-0.3-0.8-0.7-0.4-1.5-0.2-4.7 3.2-6.5 0.4-0.2 0.9 0 1.1 0.4 0.3 0.4 0.1 0.9-0.3 1.1-3.1 1.6-2.4 4.3-2.4 4.6 0.2 0.5-0.1 0.9-0.6 1q-0.1 0.1-0.2 0.1z"/>
					</g>
					<g id="&lt;Group&gt;">
						<path id="&lt;Path&gt;" class="s0" d="m332 431.1c-0.3 0-0.7-0.2-0.8-0.5-0.1-0.5 0.1-1 0.5-1.1 0.1 0 1-0.4 1.8-1.3 0.3-0.3 0.8-0.4 1.2-0.1 0.3 0.3 0.4 0.9 0.1 1.2-1.1 1.3-2.4 1.7-2.5 1.8q-0.1 0-0.3 0z"/>
					</g>
					<g id="&lt;Group&gt;">
						<path id="&lt;Path&gt;" class="s0" d="m336.4 431.1q-0.2 0-0.4-0.1c-0.2 0-1.8-0.8-2.5-1.7-0.2-0.4-0.2-0.9 0.2-1.2 0.4-0.3 0.9-0.2 1.2 0.1 0.3 0.5 1.4 1.1 1.8 1.3 0.5 0.2 0.6 0.7 0.4 1.1-0.1 0.3-0.4 0.5-0.7 0.5z"/>
					</g>
					<g id="&lt;Group&gt;">
						<path id="&lt;Path&gt;" class="s0" d="m332 431.1c-0.3 0-0.6-0.2-0.7-0.5-0.2-0.4-0.1-0.9 0.4-1.1 0.1 0 2.6-1.2 4.8 0 0.4 0.2 0.6 0.7 0.4 1.1-0.3 0.4-0.8 0.6-1.2 0.3-1.4-0.7-3.3 0.1-3.3 0.1q-0.2 0.1-0.4 0.1z"/>
					</g>
					<g id="&lt;Group&gt;">
						<path id="&lt;Path&gt;" class="s0" d="m339.2 436.7q-0.1 0-0.2-0.1c-0.5 0-0.7-0.5-0.7-0.9 0.7-3.1-2.3-4.6-2.4-4.7-0.5-0.2-0.6-0.7-0.4-1.1 0.2-0.4 0.7-0.6 1.1-0.4 1.5 0.7 4.1 3 3.4 6.5-0.1 0.4-0.4 0.7-0.8 0.7z"/>
					</g>
					<g id="&lt;Group&gt;">
						<path id="&lt;Path&gt;" class="s0" d="m334.1 428.3c-0.4 0-1-0.4-1-0.9 0-0.4 0.6-0.9 1-0.9 0.5 0 1 0.5 1 0.9 0 0.5-0.5 0.9-1 0.9z"/>
					</g>
					<g id="&lt;Group&gt;">
						<path id="&lt;Compound Path&gt;" class="s0" d="m334.1 428.9c-0.5 0-1.1-0.4-1.1-1 0-0.6 0.6-1 1.1-1 0.7 0 1.1 0.5 1.1 1 0 0.5-0.4 1-1.1 1zm0-1.6c-0.3 0-0.6 0.2-0.6 0.6 0 0.4 0.3 0.7 0.6 0.7 0.5 0 0.6-0.5 0.6-0.7 0-0.1-0.1-0.6-0.6-0.6z"/>
					</g>
					<g id="&lt;Group&gt;">
						<path id="&lt;Compound Path&gt;" class="s0" d="m334.1 429.5c-0.5 0-1.1-0.4-1.1-1 0-0.6 0.6-1 1.1-1 0.7 0 1.2 0.4 1.2 1 0 0.6-0.5 1-1.2 1zm0-1.7c-0.2 0-0.5 0.3-0.5 0.7 0 0.4 0.3 0.7 0.5 0.7 0.5 0 0.6-0.5 0.6-0.7 0-0.2-0.1-0.7-0.6-0.7z"/>
					</g>
					<g id="&lt;Group&gt;">
						<path id="&lt;Path&gt;" class="s0" d="m334.1 428.1c-0.4 0-0.8-0.4-0.8-0.8v-0.6c0-0.5 0.4-0.9 0.8-0.9 0.5 0 0.9 0.4 0.9 0.9v0.6c0 0.4-0.4 0.8-0.9 0.8z"/>
					</g>
					<g id="&lt;Group&gt;">
						<path id="&lt;Compound Path&gt;" class="s0" d="m341.6 467.5h-14.6c-1 0-1.8-0.8-1.8-1.8 0-1 0.8-1.8 1.8-1.8h14.6c1 0 1.8 0.8 1.8 1.8 0 1-0.8 1.8-1.8 1.8zm-14.6-1.9v0.2h14.6c0 0 0.1 0 0.1-0.1z"/>
					</g>
					<g id="&lt;Group&gt;">
						<path id="&lt;Compound Path&gt;" class="s0" d="m342.5 486.2h-16.4c-1 0-1.9-0.9-1.9-2 0-1 0.8-1.8 1.9-1.8h16.4c1 0 1.9 0.8 1.9 1.8 0 1.1-0.9 2-1.9 2zm-16.4-2.1c-0.1 0-0.2 0-0.2 0.1 0 0.2 0.1 0.3 0.2 0.3h16.4c0.1 0 0.2-0.1 0.2-0.3 0-0.1-0.1-0.1-0.2-0.1z"/>
					</g>
					<g id="&lt;Group&gt;">
						<path id="&lt;Path&gt;" class="s0" d="m355.9 452.1q-0.3 0-0.6-0.2c-0.2-0.2-5.1-5-4.5-11.7 0.5-4.9 4-9.5 10.4-13.6 10.8-6.9 12.8-10 12.9-13.8 0.1-0.5 0.4-0.8 0.9-0.8 0.5 0 0.8 0.4 0.8 0.8-0.2 4.5-2.3 7.9-13.7 15.2-6 3.8-9.2 8-9.6 12.4-0.6 5.8 3.9 10.2 4 10.3 0.3 0.3 0.3 0.8 0 1.2q-0.3 0.2-0.6 0.2z"/>
					</g>
					<g id="&lt;Group&gt;">
						<path id="&lt;Path&gt;" class="s0" d="m394.1 452.1q-0.4 0-0.6-0.2c-0.4-0.4-0.3-0.9 0-1.2 0-0.1 4.6-4.5 4-10.3-0.4-4.5-3.6-8.6-9.5-12.4-11.6-7.3-13.7-10.7-13.9-15.2 0-0.4 0.4-0.8 0.8-0.8 0.5 0 0.9 0.3 0.9 0.8 0.2 3.8 2.2 6.9 13.1 13.8 6.3 4.1 9.8 8.7 10.3 13.6 0.6 6.7-4.3 11.5-4.6 11.7q-0.2 0.2-0.5 0.2z"/>
					</g>
					<g id="&lt;Group&gt;">
						<path id="&lt;Path&gt;" class="s0" d="m375 409c-0.8 0-1.5-0.6-1.5-1.3 0-0.7 0.8-1.3 1.5-1.3 0.7 0 1.4 0.6 1.4 1.3 0 0.7-0.6 1.3-1.4 1.3z"/>
					</g>
					<g id="&lt;Group&gt;">
						<path id="&lt;Path&gt;" class="s0" d="m375.1 411.1c-1 0-1.8-0.6-1.8-1.4 0-0.8 0.8-1.4 1.8-1.4 0.9 0 1.6 0.6 1.6 1.4 0 0.8-0.7 1.4-1.6 1.4z"/>
					</g>
					<g id="&lt;Group&gt;">
						<path id="&lt;Path&gt;" class="s0" d="m375.1 413.6c-1.2 0-1.9-0.8-1.9-1.6 0-0.8 0.7-1.6 1.9-1.6 1.1 0 1.9 0.7 1.9 1.6 0 0.9-0.8 1.6-1.9 1.6z"/>
					</g>
					<g id="&lt;Group&gt;">
						<path id="&lt;Path&gt;" class="s0" d="m375 407.8q0 0-0.1 0c-0.4 0-0.8-0.4-0.8-0.8l0.1-2.1c0-0.5 0.4-0.8 0.9-0.8 0.5 0 0.8 0.4 0.8 0.8l-0.1 2.1c0 0.5-0.4 0.8-0.8 0.8z"/>
					</g>
					<g id="&lt;Group&gt;">
						<path id="&lt;Path&gt;" class="s0" d="m381.2 397.5q-0.3 0-0.5-0.2l-1.2-0.9-1.3 0.9c-0.2 0.3-0.7 0.3-0.9 0-0.3-0.2-0.5-0.6-0.3-0.9l0.4-1.4-1.2-0.9c-0.3-0.2-0.4-0.6-0.3-1 0.1-0.3 0.4-0.5 0.8-0.5h1.5l0.5-1.6c0.1-0.3 0.5-0.5 0.8-0.5 0.4 0 0.7 0.2 0.8 0.6l0.4 1.5h1.6c0.4 0 0.7 0.2 0.8 0.5 0.1 0.4 0 0.8-0.3 1l-1.3 0.9 0.5 1.4c0.1 0.4 0 0.7-0.3 0.9q-0.2 0.2-0.5 0.2z"/>
					</g>
					<g id="&lt;Group&gt;">
						<path id="&lt;Compound Path&gt;" class="s0" d="m376.7 405.5c-0.8 0-1.6-0.1-2.2-0.3q-0.2-0.1-0.4-0.2-0.2 0-0.5-0.1c-3.3-1.2-5.6-4.5-5.6-8.1 0-4.6 3.7-8.5 8.3-8.6 0.4 0 0.7 0.2 0.8 0.6 0.1 0.4 0 0.8-0.4 1-1.7 0.9-2.7 2.8-2.7 4.9 0 3.2 2.6 5.8 5.8 5.8 1.3 0 2.5-0.4 3.6-1.2 0.3-0.3 0.7-0.3 1 0 0.3 0.2 0.4 0.6 0.3 1-1.4 3.1-4.5 5.2-8 5.2zm-2-1.9q0.1 0 0.3 0c0.5 0.1 1 0.2 1.7 0.2 1.7 0 3.4-0.6 4.7-1.8q-0.8 0.2-1.6 0.2c-4.2 0-7.5-3.3-7.5-7.5 0-1.5 0.4-2.9 1.2-4.1-2.3 1.1-3.8 3.5-3.8 6.2 0 2.9 1.8 5.6 4.5 6.6q0.2 0 0.3 0.2 0.1 0 0.2 0z"/>
					</g>
					<g id="&lt;Group&gt;">
						<path id="&lt;Path&gt;" class="s0" d="m361.5 452.1c-0.2 0-0.5-0.1-0.6-0.3-0.1-0.1-9.4-12.9 4-25.1 7.8-6.9 9.2-10 9.2-13.9 0-0.5 0.4-0.8 0.9-0.8 0.5 0 0.8 0.4 0.8 0.8-0.1 4.4-1.6 7.8-9.8 15.2-12.3 11.1-4.2 22.3-3.8 22.8 0.3 0.4 0.2 0.9-0.2 1.2q-0.2 0.1-0.5 0.1z"/>
					</g>
					<g id="&lt;Group&gt;">
						<path id="&lt;Path&gt;" class="s0" d="m368.3 452.1c-0.4 0-0.7-0.2-0.8-0.5-0.2-0.5-4.6-12.7 2-24.7 3.8-6.9 4.6-10.1 4.6-14.1 0-0.5 0.4-0.8 0.9-0.8 0.5 0 0.8 0.4 0.8 0.8-0.1 4.3-0.8 7.7-4.8 14.9-6.3 11.3-2 23.2-2 23.3 0.2 0.4 0 0.9-0.5 1.1q-0.1 0-0.2 0z"/>
					</g>
					<g id="&lt;Group&gt;">
						<path id="&lt;Path&gt;" class="s0" d="m388.5 452.1q-0.3 0-0.5-0.1c-0.4-0.3-0.4-0.8-0.2-1.2 0.4-0.5 8.4-11.7-3.9-22.8-8.1-7.4-9.6-10.7-9.8-15.2 0-0.4 0.4-0.8 0.8-0.8 0.5 0 0.9 0.3 0.9 0.8 0.2 3.9 1.6 7 9.2 13.9 13.5 12.1 4.3 25 4.2 25.1-0.2 0.2-0.4 0.3-0.7 0.3z"/>
					</g>
					<g id="&lt;Group&gt;">
						<path id="&lt;Path&gt;" class="s0" d="m381.7 452.1q-0.1 0-0.3 0c-0.4-0.2-0.6-0.7-0.5-1.1 0.1-0.1 4.3-12-1.9-23.3-4-7.2-4.8-10.5-4.9-14.9 0-0.4 0.4-0.8 0.9-0.8 0.5 0 0.8 0.3 0.8 0.8 0.1 4 0.8 7.2 4.7 14.1 6.6 12 2.2 24.2 2 24.7-0.1 0.3-0.5 0.5-0.8 0.5z"/>
					</g>
					<g id="&lt;Group&gt;">
						<path id="&lt;Path&gt;" class="s0" d="m397.5 455.5c-0.5 0-0.8-0.4-0.8-0.9 0-1.3-1.1-2.4-2.4-2.4h-38c-1.3 0-2.4 1.1-2.4 2.4 0 0.5-0.4 0.9-0.9 0.9-0.4 0-0.8-0.4-0.8-0.9 0-2.2 1.8-4.1 4.1-4.1h38c2.2 0 4.1 1.9 4.1 4.1 0 0.5-0.4 0.9-0.9 0.9z"/>
					</g>
					<g id="&lt;Group&gt;">
						<path id="&lt;Path&gt;" class="s0" d="m399.6 492.3c-0.4 0-0.8-0.4-0.8-0.8l-2.1-37c-0.1-0.4 0.3-0.8 0.8-0.9 0.5 0 0.8 0.4 0.9 0.8l2.1 37c0 0.5-0.4 0.9-0.8 0.9q-0.1 0-0.1 0z"/>
					</g>
					<g id="&lt;Group&gt;">
						<path id="&lt;Path&gt;" class="s0" d="m351.4 493.5q-0.1 0-0.1 0c-0.4 0-0.8-0.4-0.8-0.8l1.7-38.3c0-0.4 0.3-0.8 0.9-0.8 0.4 0.1 0.8 0.5 0.8 0.9l-1.7 38.2c0 0.5-0.4 0.8-0.8 0.8z"/>
					</g>
					<g id="&lt;Group&gt;">
						<path id="&lt;Path&gt;" class="s0" d="m358.6 507.8c-0.5 0-0.9-0.4-0.9-0.9v-35c0.1-0.5 0.5-12.3 18-16.6q0.2-0.1 0.4 0c0.2 0 16.9 4.4 17.9 18.7 0 0.5-0.3 0.9-0.8 0.9-0.5 0-0.9-0.3-0.9-0.8-0.8-12.3-14.6-16.6-16.4-17.2-16 4.1-16.5 14.5-16.5 15v35c0 0.5-0.4 0.9-0.8 0.9z"/>
					</g>
					<g id="&lt;Group&gt;">
						<path id="&lt;Compound Path&gt;" class="s0" d="m408.6 490.6q0 0 0 0c-0.5 0-0.8-0.4-0.8-0.9l1-22.9c0-0.5 0.4-0.8 0.8-0.8q0 0 0.1 0c0.4 0 0.8 0.4 0.8 0.9l-1.1 22.9c0 0.5-0.3 0.8-0.8 0.8zm14.6-4.2c-0.4 0-0.8-0.3-0.8-0.8l-1-18.7c0-0.5 0.3-0.9 0.8-0.9 0.5 0 0.8 0.3 0.9 0.8l1 18.7c0 0.5-0.4 0.9-0.8 0.9q0 0-0.1 0zm-1.1-20.7c-0.4 0-0.8-0.3-0.8-0.8l-0.7-11.2c0-0.5 0.4-0.9 0.8-0.9 0.5 0 0.9 0.3 0.9 0.8l0.7 11.2c0 0.5-0.3 0.9-0.8 0.9q0 0-0.1 0zm-12.4 0q0 0 0 0c-0.5 0-0.9-0.4-0.8-0.8l0.5-11.3c0-0.5 0.4-0.8 0.8-0.8 0.5 0 0.9 0.4 0.8 0.9l-0.5 11.2c0 0.5-0.3 0.8-0.8 0.8zm11.7-13c-0.5 0-0.8-0.3-0.8-0.8l-0.8-13.3h-8.1l-0.6 13.3c0 0.5-0.4 0.8-0.8 0.8-0.5 0-0.9-0.4-0.8-0.9l0.5-14.1c0.1-0.4 0.4-0.8 0.9-0.8h9.7c0.5 0 0.9 0.4 0.9 0.8l0.7 14.1c0.1 0.5-0.3 0.9-0.8 0.9q0 0 0 0z"/>
					</g>
					<g id="&lt;Group&gt;">
						<path id="&lt;Compound Path&gt;" class="s0" d="m418.5 452.8h-4.8c-0.4 0-0.8-0.4-0.8-0.8v-10.7c0-1.8 1.4-3.2 3.2-3.2 1.8 0 3.3 1.4 3.3 3.2v10.7c0 0.4-0.4 0.8-0.9 0.8zm-3.9-1.7h3.1v-9.8c0-0.9-0.7-1.5-1.6-1.5-0.8 0-1.5 0.7-1.5 1.5z"/>
					</g>
					<g id="&lt;Group&gt;">
						<path id="&lt;Path&gt;" class="s0" d="m420.7 438.6h-9.9c-0.9 0-1.7-0.8-1.7-1.7 0-0.9 0.8-1.7 1.7-1.7h9.9c0.9 0 1.7 0.8 1.7 1.7 0 0.9-0.8 1.7-1.7 1.7z"/>
					</g>
					<g id="&lt;Group&gt;">
						<path id="&lt;Path&gt;" class="s0" d="m422.3 454.5h-13.2c-0.9 0-1.7-0.8-1.7-1.7 0-0.9 0.8-1.7 1.7-1.7h13.2c0.9 0 1.7 0.8 1.7 1.7 0 0.9-0.8 1.7-1.7 1.7z"/>
					</g>
					<g id="&lt;Group&gt;">
						<path id="&lt;Path&gt;" class="s0" d="m410.7 436.8c-0.4 0-0.7-0.2-0.8-0.7-0.5-2.7 0.7-5 3.2-6.4 0.4-0.2 0.9-0.1 1.1 0.3 0.3 0.5 0.1 1-0.3 1.2-2.4 1.3-2.6 3.2-2.4 4.6 0.1 0.5-0.2 0.9-0.6 1q-0.1 0-0.2 0z"/>
					</g>
					<g id="&lt;Group&gt;">
						<path id="&lt;Path&gt;" class="s0" d="m413.5 431.3c-0.3 0-0.7-0.2-0.8-0.6-0.2-0.4 0.1-0.9 0.5-1 0 0 0.9-0.4 1.8-1.3 0.3-0.3 0.9-0.3 1.2 0 0.3 0.4 0.3 0.9 0 1.2-1.1 1.1-2.4 1.6-2.4 1.6q-0.2 0.1-0.3 0.1z"/>
					</g>
					<g id="&lt;Group&gt;">
						<path id="&lt;Path&gt;" class="s0" d="m417.9 431.4q-0.2 0-0.4-0.1c-0.2-0.1-1.8-0.9-2.5-1.7-0.3-0.3-0.3-0.8 0-1.2 0.3-0.3 0.9-0.3 1.2 0 0.5 0.5 1.6 1.2 2.1 1.4 0.4 0.2 0.5 0.7 0.3 1.1-0.1 0.3-0.4 0.5-0.7 0.5z"/>
					</g>
					<g id="&lt;Group&gt;">
						<path id="&lt;Path&gt;" class="s0" d="m413.4 431.4c-0.3 0-0.6-0.2-0.7-0.5-0.3-0.4-0.1-0.9 0.3-1.1 0.1-0.1 2.8-1.4 4.9-0.2 0.4 0.3 0.6 0.8 0.4 1.2-0.3 0.4-0.8 0.5-1.2 0.3-1.3-0.8-3.3 0.2-3.3 0.2q-0.2 0.1-0.4 0.1z"/>
					</g>
					<g id="&lt;Group&gt;">
						<path id="&lt;Path&gt;" class="s0" d="m420.6 436.8q-0.1 0-0.2 0c-0.5-0.1-0.8-0.5-0.7-1 0.6-3-2.3-4.5-2.5-4.6-0.4-0.2-0.5-0.7-0.3-1.1 0.2-0.4 0.7-0.6 1.1-0.4 1.5 0.7 4.1 3 3.4 6.5-0.1 0.4-0.5 0.6-0.8 0.6z"/>
					</g>
					<g id="&lt;Group&gt;">
						<path id="&lt;Path&gt;" class="s0" d="m415.5 428.6c-0.5 0-1-0.5-1-1q0-0.4 0.2-0.6c0.2-0.2 0.6-0.3 0.8-0.3 0.4 0 0.7 0.2 0.8 0.3q0.2 0.2 0.2 0.6c0 0.5-0.4 1-1 1z"/>
					</g>
					<g id="&lt;Group&gt;">
						<path id="&lt;Compound Path&gt;" class="s0" d="m415.6 429.1c-0.6 0-1.1-0.4-1.1-1 0-0.2 0.1-0.9 1.1-0.9 0.5 0 1 0.4 1 0.9 0 0.5-0.5 1-1 1zm-0.1-1.1l0.7 0.1c0-0.4-0.3-0.7-0.6-0.7-0.4 0-0.7 0.3-0.7 0.7h0.6z"/>
					</g>
					<g id="&lt;Group&gt;">
						<path id="&lt;Compound Path&gt;" class="s0" d="m415.6 429.8c-0.6 0-1.1-0.5-1.1-1.1 0-0.6 0.5-1 1.1-1 0.6 0 1.1 0.4 1.1 1 0 0.6-0.5 1.1-1.1 1.1zm0-1.7c-0.3 0-0.6 0.3-0.6 0.6 0 0.8 1.2 0.8 1.2 0 0-0.3-0.3-0.6-0.6-0.6z"/>
					</g>
					<g id="&lt;Group&gt;">
						<path id="&lt;Path&gt;" class="s0" d="m415.6 428.3c-0.5 0-0.8-0.4-0.8-0.9v-0.5c0-0.4 0.3-0.8 0.8-0.8 0.5 0 0.8 0.4 0.8 0.8v0.5c0 0.5-0.3 0.9-0.8 0.9z"/>
					</g>
					<g id="&lt;Group&gt;">
						<path id="&lt;Compound Path&gt;" class="s0" d="m423.1 467.7h-14.7c-1 0-1.8-0.8-1.8-1.8 0-1 0.8-1.8 1.8-1.8h14.7c0.9 0 1.7 0.8 1.7 1.8 0 1-0.8 1.8-1.7 1.8zm-14.7-1.9l14.7 0.2c0 0 0.1-0.1 0.1-0.1z"/>
					</g>
					<g id="&lt;Group&gt;">
						<path id="&lt;Compound Path&gt;" class="s0" d="m423.9 486.3h-16.4c-1 0-1.8-0.8-1.8-1.8 0-1.1 0.8-2 1.8-2h16.4c1.1 0 1.9 0.9 1.9 2 0 1-0.9 1.8-1.9 1.8zm-16.4-2.1c-0.1 0-0.2 0.2-0.2 0.3 0 0 0.1 0.1 0.2 0.1h16.4c0.1 0 0.2-0.1 0.2-0.1 0-0.1-0.1-0.3-0.2-0.3z"/>
					</g>
					<g id="&lt;Group&gt;">
						<path id="&lt;Path&gt;" class="s0" d="m404 496.7c-2.9 0-5.2-2.3-5.2-5.2 0-0.5 0.4-0.9 0.8-0.9 0.5 0 0.9 0.4 0.9 0.9 0 1.9 1.5 3.6 3.5 3.6 2.1 0 3.4-1.9 3.6-3.7l0.3-2.8c0-0.5 0.4-0.8 0.9-0.8 0.4 0.1 0.8 0.5 0.7 1l-0.2 2.7c-0.3 3.1-2.6 5.2-5.3 5.2z"/>
					</g>
					<g id="&lt;Group&gt;">
						<path id="&lt;Path&gt;" class="s0" d="m346.8 499.9c-2.9 0-5.3-2.4-5.3-5.3 0-0.4 0.4-0.8 0.9-0.8 0.4 0 0.8 0.4 0.8 0.8 0 2 1.6 3.6 3.6 3.6 1.8 0 3.3-1.5 3.5-3.6l0.3-2.8c0-0.5 0.5-0.8 0.9-0.8 0.5 0.1 0.8 0.5 0.8 1l-0.3 2.7c-0.3 3-2.5 5.2-5.2 5.2z"/>
					</g>
					<g id="&lt;Group&gt;">
						<path id="&lt;Compound Path&gt;" class="s0" d="m247.1 446h-40.5c-0.5 0-0.9-0.4-0.9-0.8v-59.2c0-0.5 0.4-0.8 0.9-0.8h40.5c0.5 0 0.8 0.3 0.8 0.8v59.2c0 0.4-0.3 0.8-0.8 0.8zm-39.7-1.7h38.9v-57.5h-38.9z"/>
					</g>
					<g id="&lt;Group&gt;">
						<path id="&lt;Compound Path&gt;" class="s0" d="m234.2 446h-14.9c-0.4 0-0.8-0.4-0.8-0.8v-47c0-4.6 3.7-8.3 8.3-8.3 4.6 0 8.3 3.7 8.3 8.3v47c0 0.4-0.4 0.8-0.9 0.8zm-14-1.7h13.2v-46.1c0-3.7-3-6.7-6.6-6.7-3.6 0-6.6 3-6.6 6.7z"/>
					</g>
					<g id="&lt;Group&gt;">
						<path id="&lt;Compound Path&gt;" class="s0" d="m244.3 446h-6.2c-0.5 0-0.8-0.4-0.8-0.8v-47.1c0-2.1 1.8-4 3.9-4 2.2 0 4 1.9 4 4v47.1c0 0.4-0.4 0.8-0.9 0.8zm-5.4-1.7h4.6v-46.2c0-1.2-1.1-2.3-2.3-2.3-1.2 0-2.3 1.1-2.3 2.3z"/>
					</g>
					<g id="&lt;Group&gt;">
						<path id="&lt;Compound Path&gt;" class="s0" d="m215.6 446h-6.2c-0.4 0-0.8-0.4-0.8-0.8v-47.1c0-2.2 1.8-4 3.9-4 2.2 0 3.9 1.8 3.9 4v47.1c0 0.4-0.4 0.8-0.8 0.8zm-5.3-1.7h4.4v-46.2c0-1.2-1-2.3-2.2-2.3-1.2 0-2.2 1-2.2 2.3z"/>
					</g>
					<g id="&lt;Group&gt;">
						<path id="&lt;Compound Path&gt;" class="s0" d="m247.4 386.8h-41.2c-2.4 0-4.3-1.9-4.3-4.3 0-2.5 1.9-4.4 4.3-4.4h41.2c2.4 0 4.4 2 4.4 4.4 0 2.4-2 4.3-4.4 4.3zm-41.2-7c-1.5 0-2.7 1.2-2.7 2.7 0 1.5 1.2 2.7 2.7 2.7h41.2c1.5 0 2.7-1.3 2.7-2.7 0-1.5-1.2-2.7-2.7-2.7z"/>
					</g>
					<g id="&lt;Group&gt;">
						<path id="&lt;Compound Path&gt;" class="s0" d="m247.4 453.1h-41.2c-2.4 0-4.3-2-4.3-4.4 0-2.5 1.9-4.4 4.3-4.4h41.2c2.4 0 4.4 2 4.4 4.4 0 2.4-2 4.4-4.4 4.4zm-41.2-7.1c-1.5 0-2.7 1.2-2.7 2.7 0 1.5 1.2 2.7 2.7 2.7h41.2c1.5 0 2.7-1.3 2.7-2.7 0-1.5-1.2-2.7-2.7-2.7z"/>
					</g>
					<g id="&lt;Group&gt;">
						<path id="&lt;Compound Path&gt;" class="s0" d="m226.8 473.2c-13.7 0-24.9-11.2-24.9-25v-65.5c0-0.4 0.3-0.8 0.8-0.8h48.3c0.4 0 0.8 0.4 0.8 0.8v65.5c0 13.8-11.2 25-25 25zm-23.3-89.6v64.6c0 12.9 10.5 23.3 23.3 23.3 12.9 0 23.3-10.4 23.3-23.3v-64.6z"/>
					</g>
					<g id="&lt;Group&gt;">
						<path id="&lt;Path&gt;" class="s0" d="m203.4 381.5c-0.3 0-0.6-0.2-0.7-0.6-0.1-0.1-6.7-18.9 13.2-29.3 0.4-0.3 1-0.1 1.2 0.3 0.2 0.4 0 0.9-0.4 1.1-18.4 9.8-12.5 27.1-12.5 27.3 0.2 0.4 0 0.9-0.4 1.1q-0.2 0.1-0.4 0.1z"/>
					</g>
					<g id="&lt;Group&gt;">
						<path id="&lt;Path&gt;" class="s0" d="m216.1 353.1c-0.4 0-0.7-0.2-0.8-0.5-0.2-0.4 0-0.9 0.5-1.1 0 0 5.2-1.9 9.7-6.8 0.4-0.4 0.9-0.4 1.2-0.1 0.4 0.3 0.4 0.9 0.1 1.2-4.8 5.2-10.2 7.2-10.4 7.3q-0.2 0-0.3 0z"/>
					</g>
					<g id="&lt;Group&gt;">
						<path id="&lt;Path&gt;" class="s0" d="m237.1 353.4q-0.2 0-0.4-0.1c-0.3-0.2-7.7-3.9-11-7.5-0.3-0.3-0.3-0.9 0.1-1.2 0.3-0.3 0.8-0.3 1.2 0.1 3 3.3 10.4 7.1 10.5 7.1 0.4 0.2 0.6 0.7 0.3 1.1-0.1 0.3-0.4 0.5-0.7 0.5z"/>
					</g>
					<g id="&lt;Group&gt;">
						<path id="&lt;Path&gt;" class="s0" d="m216 353.4c-0.3 0-0.6-0.2-0.8-0.5-0.2-0.4 0-0.9 0.4-1.1 0.5-0.2 11.5-5.6 20.6-0.5 0.4 0.2 0.5 0.8 0.3 1.2-0.3 0.4-0.8 0.5-1.2 0.3-8.2-4.7-18.8 0.5-18.9 0.5q-0.2 0.1-0.4 0.1z"/>
					</g>
					<g id="&lt;Group&gt;">
						<path id="&lt;Path&gt;" class="s0" d="m250.1 380.6q-0.1 0-0.2 0c-0.4-0.1-0.7-0.6-0.6-1 4-17.6-13.2-26.5-13.4-26.5-0.4-0.3-0.6-0.8-0.4-1.2 0.2-0.4 0.7-0.6 1.1-0.4 0.2 0.1 18.6 9.6 14.3 28.5 0 0.4-0.4 0.6-0.8 0.6z"/>
					</g>
					<g id="&lt;Group&gt;">
						<path id="&lt;Path&gt;" class="s0" d="m226.1 340c-0.9 0-1.6-0.6-1.6-1.3 0-0.8 0.7-1.4 1.6-1.4 0.9 0 1.7 0.6 1.7 1.4 0 0.8-0.9 1.3-1.7 1.3z"/>
					</g>
					<g id="&lt;Group&gt;">
						<path id="&lt;Path&gt;" class="s0" d="m226.2 342.7c-1.1 0-2-0.7-2-1.6 0-0.9 0.9-1.6 2-1.6 1.1 0 2 0.7 2 1.6 0 0.9-0.9 1.6-2 1.6z"/>
					</g>
					<g id="&lt;Group&gt;">
						<path id="&lt;Path&gt;" class="s0" d="m226.3 345.7c-1.2 0-2.2-0.7-2.2-1.7 0-1 1-1.8 2.2-1.8 1.1 0 2.2 0.7 2.2 1.8 0 1-1.1 1.7-2.2 1.7z"/>
					</g>
					<g id="&lt;Group&gt;">
						<path id="&lt;Path&gt;" class="s0" d="m226.2 338.7c-0.5 0-0.9-0.4-0.9-0.9v-2.6c0-0.5 0.4-0.9 0.9-0.9 0.4 0 0.8 0.4 0.8 0.9v2.6c0 0.5-0.4 0.9-0.8 0.9z"/>
					</g>
					<g id="&lt;Group&gt;">
						<path id="&lt;Compound Path&gt;" class="s0" d="m225.6 336.7c-2.1 0-5.8-2.4-7.4-3.7-1.7-1.4-2.3-2.5-2-3.4 0.1-0.4 0.5-0.9 1.7-1q0.1 0 0.2 0c3.8 0 7.1 4 8.1 5.4 0.9-1.6 3.4-5.3 7.4-5 0.4 0.1 1.7 0.2 1.9 1.2 0.2 1.3-1.5 2.5-7.6 5.6l-0.9 0.5c-0.2 0.1-0.4 0.2-0.6 0.3q-0.3 0.1-0.8 0.1zm-7.7-6.4c0.5 0.6 1.9 2 4.2 3.3 1.1 0.6 2 1 2.6 1.2-1.1-1.4-3.8-4.5-6.6-4.5q-0.1 0-0.2 0zm15.1 0.4c-2.1 0-3.7 1.6-4.6 3 1.7-0.9 4.1-2.2 5.1-3q-0.1 0-0.1 0-0.2 0-0.4 0z"/>
					</g>
					<g id="&lt;Group&gt;">
						<path id="&lt;Path&gt;" class="s0" d="m226.3 336.3c-0.4 0-0.8-0.3-0.8-0.8l-2-334.7c0-0.5 0.4-0.9 0.8-0.8 0.5 0 0.8 0.3 0.9 0.8l2 334.7c0 0.5-0.4 0.8-0.9 0.8q0 0 0 0z"/>
					</g>
					<g id="&lt;Group&gt;">
						<path id="&lt;Compound Path&gt;" class="s0" d="m227.6 365.8q-0.3 0-0.5-0.1c-0.3-0.2-0.4-0.6-0.3-1l0.6-1.9-1.7-1.3c-0.2-0.2-0.4-0.5-0.3-0.9 0.2-0.3 0.5-0.6 0.8-0.6h2.1l0.7-2c0.1-0.3 0.4-0.6 0.8-0.6 0.3 0 0.7 0.3 0.8 0.6l0.6 2h2.1c0.4 0 0.7 0.3 0.8 0.6 0.1 0.4 0 0.7-0.3 0.9l-1.7 1.3 0.7 1.9c0.1 0.4 0 0.8-0.3 1-0.3 0.2-0.7 0.2-1 0l-1.7-1.3-1.7 1.3q-0.2 0.1-0.5 0.1zm2.2-3.2q0.2 0 0.5 0.1v0.1-0.1c-0.1-0.3 0-0.7 0.3-0.9l0.1-0.1h-0.1c-0.4 0-0.7-0.2-0.8-0.6v-0.1l-0.1 0.1c-0.1 0.4-0.4 0.6-0.8 0.6h-0.1l0.1 0.1c0.3 0.2 0.4 0.6 0.3 0.9v0.1l0.1-0.1q0.2-0.1 0.5-0.1z"/>
					</g>
					<g id="&lt;Group&gt;">
						<path id="&lt;Compound Path&gt;" class="s0" d="m227.1 374.9q-1.6 0-2.7-0.4-0.3-0.1-0.5-0.4-0.3 0.2-0.6 0.1c-4.2-1.6-6.9-5.5-6.9-10 0-5.7 4.6-10.5 10.2-10.6 0.5-0.1 0.8 0.2 0.9 0.6 0.1 0.3-0.1 0.7-0.4 0.9-2.2 1.3-3.6 3.8-3.6 6.4 0 4.2 3.3 7.5 7.5 7.5 1.7 0 3.3-0.5 4.5-1.6 0.3-0.2 0.8-0.2 1.1 0 0.3 0.3 0.4 0.7 0.3 1-1.7 4-5.6 6.5-9.8 6.5zm-2.5-2q0.2 0 0.3 0 0.9 0.3 2.2 0.3c2.5 0 4.9-1.1 6.6-2.9q-1.3 0.4-2.7 0.4c-5.1 0-9.2-4.1-9.2-9.2 0-2.1 0.7-4 1.9-5.6-3.3 1.3-5.6 4.6-5.6 8.3 0 3.8 2.3 7.1 5.8 8.4q0.2 0.1 0.4 0.4 0.2-0.1 0.3-0.1z"/>
					</g>
					<g id="&lt;Group&gt;">
						<path id="&lt;Compound Path&gt;" class="s0" d="m349.4 367.9c-2.3 0-6.2-2.9-7.3-3.7-1.8-1.5-2.5-2.6-2.2-3.5 0.2-0.4 0.6-0.9 1.8-0.9 3.8-0.2 7.2 4 8.3 5.4 0.9-1.6 3.4-5.4 7.3-5 0.4 0 1.7 0.1 1.9 1.2 0.3 1.3-1.4 2.5-7.6 5.6l-0.9 0.5c-0.1 0.1-0.3 0.2-0.5 0.2q-0.3 0.2-0.8 0.2zm-7.7-6.4c0.5 0.7 2 2 4.1 3.2 1.1 0.7 2 1 2.6 1.3-1.1-1.5-3.8-4.7-6.7-4.5q0 0 0 0zm15.1 0.4c-2.1 0-3.7 1.6-4.6 2.9 1.7-0.8 4.1-2.1 5-2.9q0 0 0 0-0.2 0-0.4 0z"/>
					</g>
					<g id="&lt;Group&gt;">
						<path id="&lt;Path&gt;" class="s0" d="m350.1 365.8c-0.5 0-0.8-0.3-0.8-0.8l-2.1-363.1c0-0.5 0.5-0.8 0.9-0.8 0.4 0 0.8 0.3 0.8 0.8l2 363.1c0 0.4-0.3 0.8-0.8 0.8q0 0 0 0z"/>
					</g>
					<g id="&lt;Group&gt;">
						<path id="&lt;Compound Path&gt;" class="s0" d="m489.3 487.4c-0.4 0-0.8-0.3-0.8-0.8l-6-107c0-0.5 0.3-0.9 0.8-0.9 0.4 0 0.9 0.3 0.9 0.8l6 107c0 0.5-0.4 0.9-0.8 0.9q0 0-0.1 0zm-45.3-40.8q0 0 0 0c-0.5 0-0.9-0.4-0.8-0.9l2.9-66.4c0-0.4 0.4-0.8 0.9-0.8 0.5 0 0.8 0.4 0.8 0.9l-3 66.4c0 0.4-0.3 0.8-0.8 0.8zm39.1-71.9c-0.4 0-0.8-0.4-0.8-0.8l-1.9-32.7c0-0.5 0.3-0.9 0.8-0.9 0.5 0 0.9 0.3 0.9 0.8l1.8 32.7c0.1 0.4-0.3 0.8-0.7 0.9q-0.1 0-0.1 0zm-35.9-0.1q0 0 0 0c-0.5-0.1-0.9-0.4-0.8-0.9l1.4-32.5c0-0.5 0.4-0.8 0.8-0.8q0 0 0.1 0c0.4 0 0.8 0.4 0.8 0.8l-1.5 32.6c0 0.4-0.3 0.8-0.8 0.8zm1.6-37.7q0 0 0 0c-0.5 0-0.9-0.4-0.8-0.9l1.7-40.8c0-0.4 0.4-0.8 0.9-0.8h28.1c0.4 0 0.8 0.4 0.8 0.8l2.3 40.8c0 0.5-0.4 0.9-0.8 0.9-0.5 0-0.9-0.3-0.9-0.8l-2.2-40h-26.5l-1.8 40c0 0.5-0.4 0.8-0.8 0.8z"/>
					</g>
					<g id="&lt;Group&gt;">
						<path id="&lt;Compound Path&gt;" class="s0" d="m472.6 337.1h-13.7c-0.5 0-0.9-0.4-0.9-0.8v-31c0-4.2 3.5-7.6 7.7-7.6 4.3 0 7.7 3.4 7.7 7.6v31c0 0.4-0.3 0.8-0.8 0.8zm-12.9-1.7h12.1v-30.1c0-3.3-2.8-5.9-6.1-5.9-3.3 0-6 2.6-6 5.9z"/>
					</g>
					<g id="&lt;Group&gt;">
						<path id="&lt;Compound Path&gt;" class="s0" d="m478.9 296.1h-28.6c-1.8 0-3.3-1.6-3.3-3.4 0-1.8 1.5-3.3 3.3-3.3h28.6c1.8 0 3.3 1.5 3.3 3.3 0 1.8-1.5 3.4-3.3 3.4zm-28.6-5c-0.9 0-1.6 0.7-1.6 1.6 0 0.9 0.7 1.7 1.6 1.7h28.6c0.9 0 1.6-0.8 1.6-1.7 0-0.9-0.7-1.6-1.6-1.6z"/>
					</g>
					<g id="&lt;Group&gt;">
						<path id="&lt;Compound Path&gt;" class="s0" d="m483.6 342h-38.1c-1.8 0-3.3-1.5-3.3-3.3 0-1.8 1.5-3.3 3.3-3.3h38.1c1.8 0 3.3 1.5 3.3 3.3 0 1.8-1.5 3.3-3.3 3.3zm-38.1-4.9c-0.9 0-1.7 0.7-1.7 1.6 0 0.8 0.8 1.6 1.7 1.6h38.1c0.9 0 1.6-0.7 1.6-1.6 0-0.9-0.7-1.6-1.6-1.6z"/>
					</g>
					<g id="&lt;Group&gt;">
						<path id="&lt;Path&gt;" class="s0" d="m450.1 291c-0.3 0-0.7-0.2-0.8-0.6-0.5-2.7-1.6-11.8 8.4-17.1 0.5-0.2 1 0 1.2 0.4 0.2 0.4 0 0.9-0.4 1.1-8.7 4.6-8.2 12.2-7.5 15.2 0.1 0.5-0.2 0.9-0.7 1q-0.1 0-0.2 0z"/>
					</g>
					<g id="&lt;Group&gt;">
						<path id="&lt;Path&gt;" class="s0" d="m458 274.9c-0.4 0-0.7-0.2-0.8-0.5-0.2-0.5 0-1 0.5-1.1 0 0 3.1-1.2 5.7-4.1 0.3-0.3 0.8-0.4 1.2 0 0.3 0.3 0.4 0.8 0 1.1-2.8 3.3-6.2 4.5-6.4 4.6q-0.1 0-0.2 0z"/>
					</g>
					<g id="&lt;Group&gt;">
						<path id="&lt;Path&gt;" class="s0" d="m470.7 275q-0.2 0-0.4-0.1c-0.2-0.1-4.7-2.3-6.7-4.6-0.3-0.3-0.3-0.8 0-1.1 0.4-0.3 0.9-0.3 1.2 0 1.8 2.1 6.2 4.2 6.2 4.2 0.4 0.2 0.6 0.7 0.4 1.1-0.1 0.3-0.4 0.5-0.7 0.5z"/>
					</g>
					<g id="&lt;Group&gt;">
						<path id="&lt;Path&gt;" class="s0" d="m458 275.1c-0.3 0-0.6-0.2-0.8-0.5-0.2-0.4 0-0.9 0.4-1.1 0.3-0.2 7-3.5 12.6-0.3 0.4 0.2 0.6 0.7 0.4 1.1-0.3 0.4-0.8 0.6-1.2 0.3-4.8-2.6-11 0.4-11.1 0.4q-0.1 0.1-0.3 0.1z"/>
					</g>
					<g id="&lt;Group&gt;">
						<path id="&lt;Path&gt;" class="s0" d="m478.6 291q-0.1 0-0.2 0c-0.5-0.1-0.7-0.5-0.7-1 2.1-10.1-7.9-15.1-8-15.2-0.4-0.2-0.6-0.7-0.4-1.1 0.2-0.4 0.7-0.6 1.1-0.4 0.2 0.1 11.3 5.6 9 17.1-0.1 0.4-0.4 0.6-0.8 0.6z"/>
					</g>
					<g id="&lt;Group&gt;">
						<path id="&lt;Compound Path&gt;" class="s0" d="m464 267c-0.6 0-1.3-0.5-1.3-1.2 0-0.7 0.7-1.1 1.3-1.1 0.7 0 1.4 0.4 1.4 1.1 0 0.7-0.7 1.2-1.4 1.2zm0-1.7c-0.2 0-0.3 0.3-0.3 0.5 0 0.3 0.1 0.5 0.3 0.5 0.2 0 0.4-0.2 0.4-0.5 0-0.2-0.2-0.5-0.4-0.5z"/>
					</g>
					<g id="&lt;Group&gt;">
						<path id="&lt;Path&gt;" class="s0" d="m464.1 268.6c-1 0-1.5-0.6-1.5-1.3 0-0.6 0.5-1.2 1.5-1.2 0.9 0 1.5 0.5 1.5 1.2 0 0.8-0.6 1.3-1.5 1.3z"/>
					</g>
					<g id="&lt;Group&gt;">
						<path id="&lt;Path&gt;" class="s0" d="m464.1 270.5c-0.9 0-1.6-0.7-1.6-1.5 0-0.7 0.7-1.3 1.6-1.3 1 0 1.7 0.6 1.7 1.3 0 0.8-0.7 1.5-1.7 1.5z"/>
					</g>
					<g id="&lt;Group&gt;">
						<path id="&lt;Path&gt;" class="s0" d="m464 266.2q0 0 0 0c-0.5-0.1-0.8-0.4-0.8-0.9l0.1-1.6c0-0.5 0.3-0.8 0.8-0.8 0.5 0 0.9 0.4 0.8 0.9v1.6c-0.1 0.4-0.4 0.8-0.9 0.8z"/>
					</g>
					<g id="&lt;Group&gt;">
						<path id="&lt;Compound Path&gt;" class="s0" d="m485.7 380.3h-42.4c-1.9 0-3.5-1.7-3.5-3.6 0-1.9 1.7-3.6 3.5-3.6h42.4c2 0 3.5 1.6 3.5 3.6 0 2-1.5 3.6-3.5 3.6zm-42.4-5.5c-0.9 0-1.8 0.9-1.8 1.9 0 1 0.9 1.9 1.8 1.9h42.4c1 0 1.9-0.9 1.9-1.9 0-1-0.9-1.9-1.9-1.9z"/>
					</g>
					<g id="&lt;Group&gt;">
						<path id="&lt;Compound Path&gt;" class="s0" d="m488.2 434.2h-47.4c-2.1 0-3.9-1.7-3.9-3.8 0-2.2 1.8-3.9 3.9-3.9h47.4c2.2 0 3.9 1.7 3.9 3.9 0 2.1-1.7 3.8-3.9 3.8zm-47.4-6c-1.2 0-2.2 0.9-2.2 2.2 0 1.2 1 2.1 2.2 2.1h47.4c1.3 0 2.2-0.9 2.2-2.1 0-1.3-0.9-2.2-2.2-2.2z"/>
					</g>
					<g id="&lt;Group&gt;">
						<path id="&lt;Compound Path&gt;" class="s0" d="m463.7 264.7c-2.2 0-6.3-2.7-7.8-4-1.5-1.3-2-2.3-1.7-3.1 0.2-0.4 0.6-0.9 1.7-0.9 4-0.2 7.3 4 8.3 5.4 0.9-1.7 3.4-5.4 7.4-5.1 0.4 0 1.7 0.2 1.9 1.2 0.2 1.3-1.5 2.6-7.8 5.8l-0.7 0.4q-0.2 0.1-0.6 0.2-0.3 0.1-0.7 0.1zm-7.7-6.3c0.5 0.6 2 2 4.1 3.2 1.1 0.6 1.9 1 2.6 1.2-1.1-1.4-3.8-4.4-6.6-4.4 0 0-0.1 0-0.1 0zm15.1 0.3c-2.1 0-3.7 1.6-4.7 3q4-2.1 5.1-3 0 0-0.1 0-0.1 0-0.3 0z"/>
					</g>
					<g id="&lt;Group&gt;">
						<path id="&lt;Path&gt;" class="s0" d="m464.4 264.4c-0.5 0-0.9-0.4-0.9-0.8l-2-260.8c0-0.4 0.4-0.8 0.8-0.8q0 0 0 0c0.5 0 0.9 0.4 0.9 0.8l2 260.8c0 0.4-0.4 0.8-0.8 0.8q0 0 0 0z"/>
					</g>
					<g id="&lt;Group&gt;">
					</g>
					<g id="&lt;Group&gt;">
					</g>
					<g id="&lt;Group&gt;">
					</g>
					<g id="&lt;Group&gt;">
					</g>
					<g id="&lt;Group&gt;">
					</g>
					<g id="&lt;Group&gt;">
					</g>
					<g id="&lt;Group&gt;">
					</g>
					<g id="&lt;Group&gt;">
					</g>
					<g id="&lt;Group&gt;">
					</g>
					<g id="&lt;Group&gt;">
					</g>
					<g id="&lt;Group&gt;">
					</g>
					<g id="&lt;Group&gt;">
					</g>
					<g id="&lt;Group&gt;">
					</g>
					<g id="&lt;Group&gt;">
					</g>
					<g id="&lt;Group&gt;">
					</g>
					<g id="&lt;Group&gt;">
					</g>
					<g id="&lt;Group&gt;">
					</g>
					<g id="&lt;Group&gt;">
					</g>
					<g id="&lt;Group&gt;">
					</g>
					<g id="&lt;Group&gt;">
					</g>
					<g id="&lt;Group&gt;">
					</g>
					<g id="&lt;Group&gt;">
					</g>
					<g id="&lt;Group&gt;">
					</g>
				</g>
			</g>
		</g>
	</g>
</svg>